<mxfile host="app.diagrams.net" modified="2024-06-21T13:58:05.264Z" agent="Mozilla/5.0 (Windows NT 10.0; Win64; x64) AppleWebKit/537.36 (KHTML, like Gecko) Chrome/121.0.0.0 Safari/537.36" etag="DrrCNS7WDpdB1LaEqPQ0" version="24.6.0" type="device">
  <diagram id="C5RBs43oDa-KdzZeNtuy" name="Page-1">
    <mxGraphModel dx="2261" dy="782" grid="1" gridSize="10" guides="1" tooltips="1" connect="1" arrows="1" fold="1" page="1" pageScale="1" pageWidth="827" pageHeight="1169" math="0" shadow="0">
      <root>
        <mxCell id="WIyWlLk6GJQsqaUBKTNV-0" />
        <mxCell id="WIyWlLk6GJQsqaUBKTNV-1" parent="WIyWlLk6GJQsqaUBKTNV-0" />
        <mxCell id="s3_GAaO1s_mws26SSkRH-26" style="edgeStyle=orthogonalEdgeStyle;rounded=0;orthogonalLoop=1;jettySize=auto;html=1;entryX=0.5;entryY=0;entryDx=0;entryDy=0;" edge="1" parent="WIyWlLk6GJQsqaUBKTNV-1" source="s3_GAaO1s_mws26SSkRH-1" target="s3_GAaO1s_mws26SSkRH-2">
          <mxGeometry relative="1" as="geometry" />
        </mxCell>
        <mxCell id="s3_GAaO1s_mws26SSkRH-1" value="INICIO&amp;nbsp;" style="ellipse;whiteSpace=wrap;html=1;" vertex="1" parent="WIyWlLk6GJQsqaUBKTNV-1">
          <mxGeometry x="80" y="40" width="120" height="80" as="geometry" />
        </mxCell>
        <mxCell id="s3_GAaO1s_mws26SSkRH-25" style="edgeStyle=orthogonalEdgeStyle;rounded=0;orthogonalLoop=1;jettySize=auto;html=1;entryX=0;entryY=0.5;entryDx=0;entryDy=0;" edge="1" parent="WIyWlLk6GJQsqaUBKTNV-1" source="s3_GAaO1s_mws26SSkRH-2" target="s3_GAaO1s_mws26SSkRH-4">
          <mxGeometry relative="1" as="geometry" />
        </mxCell>
        <mxCell id="s3_GAaO1s_mws26SSkRH-27" style="edgeStyle=orthogonalEdgeStyle;rounded=0;orthogonalLoop=1;jettySize=auto;html=1;entryX=0.5;entryY=0;entryDx=0;entryDy=0;" edge="1" parent="WIyWlLk6GJQsqaUBKTNV-1" source="s3_GAaO1s_mws26SSkRH-2" target="s3_GAaO1s_mws26SSkRH-3">
          <mxGeometry relative="1" as="geometry" />
        </mxCell>
        <mxCell id="s3_GAaO1s_mws26SSkRH-2" value="LISTAR CLIENTE&amp;nbsp;" style="rounded=0;whiteSpace=wrap;html=1;" vertex="1" parent="WIyWlLk6GJQsqaUBKTNV-1">
          <mxGeometry x="80" y="165" width="120" height="60" as="geometry" />
        </mxCell>
        <mxCell id="s3_GAaO1s_mws26SSkRH-28" style="edgeStyle=orthogonalEdgeStyle;rounded=0;orthogonalLoop=1;jettySize=auto;html=1;entryX=0.5;entryY=0;entryDx=0;entryDy=0;" edge="1" parent="WIyWlLk6GJQsqaUBKTNV-1" source="s3_GAaO1s_mws26SSkRH-3" target="s3_GAaO1s_mws26SSkRH-5">
          <mxGeometry relative="1" as="geometry" />
        </mxCell>
        <mxCell id="s3_GAaO1s_mws26SSkRH-3" value="BUSCAR CLIENTE&amp;nbsp;" style="rounded=0;whiteSpace=wrap;html=1;" vertex="1" parent="WIyWlLk6GJQsqaUBKTNV-1">
          <mxGeometry x="80" y="280" width="120" height="60" as="geometry" />
        </mxCell>
        <mxCell id="s3_GAaO1s_mws26SSkRH-23" value="NÃO" style="edgeStyle=orthogonalEdgeStyle;rounded=0;orthogonalLoop=1;jettySize=auto;html=1;entryX=0;entryY=0.5;entryDx=0;entryDy=0;" edge="1" parent="WIyWlLk6GJQsqaUBKTNV-1" source="s3_GAaO1s_mws26SSkRH-4" target="s3_GAaO1s_mws26SSkRH-12">
          <mxGeometry relative="1" as="geometry" />
        </mxCell>
        <mxCell id="s3_GAaO1s_mws26SSkRH-40" value="SIM" style="edgeStyle=orthogonalEdgeStyle;rounded=0;orthogonalLoop=1;jettySize=auto;html=1;entryX=1;entryY=0.75;entryDx=0;entryDy=0;" edge="1" parent="WIyWlLk6GJQsqaUBKTNV-1" source="s3_GAaO1s_mws26SSkRH-4" target="s3_GAaO1s_mws26SSkRH-3">
          <mxGeometry relative="1" as="geometry">
            <Array as="points">
              <mxPoint x="315" y="325" />
            </Array>
          </mxGeometry>
        </mxCell>
        <mxCell id="s3_GAaO1s_mws26SSkRH-4" value="POSSUI CADASTRO ?" style="rhombus;whiteSpace=wrap;html=1;" vertex="1" parent="WIyWlLk6GJQsqaUBKTNV-1">
          <mxGeometry x="270" y="150" width="90" height="90" as="geometry" />
        </mxCell>
        <mxCell id="s3_GAaO1s_mws26SSkRH-29" value="SIM" style="edgeStyle=orthogonalEdgeStyle;rounded=0;orthogonalLoop=1;jettySize=auto;html=1;entryX=0.5;entryY=0;entryDx=0;entryDy=0;" edge="1" parent="WIyWlLk6GJQsqaUBKTNV-1" source="s3_GAaO1s_mws26SSkRH-5" target="s3_GAaO1s_mws26SSkRH-6">
          <mxGeometry relative="1" as="geometry" />
        </mxCell>
        <mxCell id="s3_GAaO1s_mws26SSkRH-41" value="NÃO" style="edgeStyle=orthogonalEdgeStyle;rounded=0;orthogonalLoop=1;jettySize=auto;html=1;entryX=0;entryY=0.25;entryDx=0;entryDy=0;" edge="1" parent="WIyWlLk6GJQsqaUBKTNV-1" source="s3_GAaO1s_mws26SSkRH-5" target="s3_GAaO1s_mws26SSkRH-3">
          <mxGeometry relative="1" as="geometry">
            <Array as="points">
              <mxPoint x="60" y="420" />
              <mxPoint x="60" y="295" />
            </Array>
          </mxGeometry>
        </mxCell>
        <mxCell id="s3_GAaO1s_mws26SSkRH-5" value="CLIENTE ENCONTRADO?" style="rhombus;whiteSpace=wrap;html=1;" vertex="1" parent="WIyWlLk6GJQsqaUBKTNV-1">
          <mxGeometry x="87.5" y="370" width="105" height="100" as="geometry" />
        </mxCell>
        <mxCell id="s3_GAaO1s_mws26SSkRH-6" value="DESEJA APAGAR ISSO?" style="rhombus;whiteSpace=wrap;html=1;" vertex="1" parent="WIyWlLk6GJQsqaUBKTNV-1">
          <mxGeometry x="88.75" y="520" width="102.5" height="90" as="geometry" />
        </mxCell>
        <mxCell id="s3_GAaO1s_mws26SSkRH-32" style="edgeStyle=orthogonalEdgeStyle;rounded=0;orthogonalLoop=1;jettySize=auto;html=1;entryX=0.5;entryY=1;entryDx=0;entryDy=0;" edge="1" parent="WIyWlLk6GJQsqaUBKTNV-1" source="s3_GAaO1s_mws26SSkRH-7" target="s3_GAaO1s_mws26SSkRH-8">
          <mxGeometry relative="1" as="geometry" />
        </mxCell>
        <mxCell id="s3_GAaO1s_mws26SSkRH-7" value="CONFIRMAR&amp;nbsp;" style="rhombus;whiteSpace=wrap;html=1;" vertex="1" parent="WIyWlLk6GJQsqaUBKTNV-1">
          <mxGeometry x="-65" y="515" width="90" height="90" as="geometry" />
        </mxCell>
        <mxCell id="s3_GAaO1s_mws26SSkRH-8" value="APAGAR CLIENTE&amp;nbsp;" style="rounded=0;whiteSpace=wrap;html=1;" vertex="1" parent="WIyWlLk6GJQsqaUBKTNV-1">
          <mxGeometry x="-80" y="370" width="120" height="60" as="geometry" />
        </mxCell>
        <mxCell id="s3_GAaO1s_mws26SSkRH-34" value="SIM" style="edgeStyle=orthogonalEdgeStyle;rounded=0;orthogonalLoop=1;jettySize=auto;html=1;" edge="1" parent="WIyWlLk6GJQsqaUBKTNV-1" source="s3_GAaO1s_mws26SSkRH-9" target="s3_GAaO1s_mws26SSkRH-10">
          <mxGeometry relative="1" as="geometry" />
        </mxCell>
        <mxCell id="s3_GAaO1s_mws26SSkRH-9" value="ATUALIZAR ?" style="rhombus;whiteSpace=wrap;html=1;" vertex="1" parent="WIyWlLk6GJQsqaUBKTNV-1">
          <mxGeometry x="270" y="510" width="90" height="90" as="geometry" />
        </mxCell>
        <mxCell id="s3_GAaO1s_mws26SSkRH-35" value="NÃO" style="edgeStyle=orthogonalEdgeStyle;rounded=0;orthogonalLoop=1;jettySize=auto;html=1;entryX=0.5;entryY=0;entryDx=0;entryDy=0;" edge="1" parent="WIyWlLk6GJQsqaUBKTNV-1" source="s3_GAaO1s_mws26SSkRH-10" target="s3_GAaO1s_mws26SSkRH-9">
          <mxGeometry relative="1" as="geometry">
            <Array as="points">
              <mxPoint x="485" y="490" />
              <mxPoint x="315" y="490" />
            </Array>
          </mxGeometry>
        </mxCell>
        <mxCell id="s3_GAaO1s_mws26SSkRH-36" style="edgeStyle=orthogonalEdgeStyle;rounded=0;orthogonalLoop=1;jettySize=auto;html=1;" edge="1" parent="WIyWlLk6GJQsqaUBKTNV-1" source="s3_GAaO1s_mws26SSkRH-10" target="s3_GAaO1s_mws26SSkRH-11">
          <mxGeometry relative="1" as="geometry" />
        </mxCell>
        <mxCell id="s3_GAaO1s_mws26SSkRH-10" value="OS DADOS ÃO VALIDOS?" style="rhombus;whiteSpace=wrap;html=1;" vertex="1" parent="WIyWlLk6GJQsqaUBKTNV-1">
          <mxGeometry x="440" y="510" width="90" height="90" as="geometry" />
        </mxCell>
        <mxCell id="s3_GAaO1s_mws26SSkRH-39" style="edgeStyle=orthogonalEdgeStyle;rounded=0;orthogonalLoop=1;jettySize=auto;html=1;entryX=0;entryY=0.5;entryDx=0;entryDy=0;" edge="1" parent="WIyWlLk6GJQsqaUBKTNV-1" source="s3_GAaO1s_mws26SSkRH-11" target="s3_GAaO1s_mws26SSkRH-38">
          <mxGeometry relative="1" as="geometry" />
        </mxCell>
        <mxCell id="s3_GAaO1s_mws26SSkRH-11" value="CADASTRO ATUALIZADO&amp;nbsp;" style="rounded=0;whiteSpace=wrap;html=1;" vertex="1" parent="WIyWlLk6GJQsqaUBKTNV-1">
          <mxGeometry x="590" y="525" width="120" height="60" as="geometry" />
        </mxCell>
        <mxCell id="s3_GAaO1s_mws26SSkRH-18" value="" style="edgeStyle=orthogonalEdgeStyle;rounded=0;orthogonalLoop=1;jettySize=auto;html=1;" edge="1" parent="WIyWlLk6GJQsqaUBKTNV-1" source="s3_GAaO1s_mws26SSkRH-12" target="s3_GAaO1s_mws26SSkRH-13">
          <mxGeometry relative="1" as="geometry" />
        </mxCell>
        <mxCell id="s3_GAaO1s_mws26SSkRH-12" value="CADASTRAR CLIENTE&amp;nbsp;" style="rounded=0;whiteSpace=wrap;html=1;" vertex="1" parent="WIyWlLk6GJQsqaUBKTNV-1">
          <mxGeometry x="450" y="165" width="120" height="60" as="geometry" />
        </mxCell>
        <mxCell id="s3_GAaO1s_mws26SSkRH-17" value="" style="edgeStyle=orthogonalEdgeStyle;rounded=0;orthogonalLoop=1;jettySize=auto;html=1;" edge="1" parent="WIyWlLk6GJQsqaUBKTNV-1" source="s3_GAaO1s_mws26SSkRH-13" target="s3_GAaO1s_mws26SSkRH-15">
          <mxGeometry relative="1" as="geometry" />
        </mxCell>
        <mxCell id="s3_GAaO1s_mws26SSkRH-13" value="É VALIDO?" style="rhombus;whiteSpace=wrap;html=1;" vertex="1" parent="WIyWlLk6GJQsqaUBKTNV-1">
          <mxGeometry x="650" y="155" width="80" height="80" as="geometry" />
        </mxCell>
        <mxCell id="s3_GAaO1s_mws26SSkRH-14" value="MOSTRAR ERRO&amp;nbsp;" style="rounded=0;whiteSpace=wrap;html=1;" vertex="1" parent="WIyWlLk6GJQsqaUBKTNV-1">
          <mxGeometry x="550" y="270" width="120" height="60" as="geometry" />
        </mxCell>
        <mxCell id="s3_GAaO1s_mws26SSkRH-15" value="CADASTRADO COM SUCESSO&amp;nbsp;" style="rounded=0;whiteSpace=wrap;html=1;" vertex="1" parent="WIyWlLk6GJQsqaUBKTNV-1">
          <mxGeometry x="630" y="40" width="120" height="60" as="geometry" />
        </mxCell>
        <mxCell id="s3_GAaO1s_mws26SSkRH-16" style="edgeStyle=orthogonalEdgeStyle;rounded=0;orthogonalLoop=1;jettySize=auto;html=1;entryX=1.025;entryY=0.388;entryDx=0;entryDy=0;entryPerimeter=0;" edge="1" parent="WIyWlLk6GJQsqaUBKTNV-1" source="s3_GAaO1s_mws26SSkRH-15" target="s3_GAaO1s_mws26SSkRH-1">
          <mxGeometry relative="1" as="geometry" />
        </mxCell>
        <mxCell id="s3_GAaO1s_mws26SSkRH-21" style="edgeStyle=orthogonalEdgeStyle;rounded=0;orthogonalLoop=1;jettySize=auto;html=1;entryX=0.417;entryY=1.083;entryDx=0;entryDy=0;entryPerimeter=0;" edge="1" parent="WIyWlLk6GJQsqaUBKTNV-1" source="s3_GAaO1s_mws26SSkRH-13" target="s3_GAaO1s_mws26SSkRH-12">
          <mxGeometry relative="1" as="geometry">
            <Array as="points">
              <mxPoint x="690" y="250" />
              <mxPoint x="500" y="250" />
            </Array>
          </mxGeometry>
        </mxCell>
        <mxCell id="s3_GAaO1s_mws26SSkRH-22" value="NÃO" style="edgeStyle=orthogonalEdgeStyle;rounded=0;orthogonalLoop=1;jettySize=auto;html=1;entryX=0.45;entryY=-0.033;entryDx=0;entryDy=0;entryPerimeter=0;" edge="1" parent="WIyWlLk6GJQsqaUBKTNV-1" source="s3_GAaO1s_mws26SSkRH-13" target="s3_GAaO1s_mws26SSkRH-14">
          <mxGeometry relative="1" as="geometry">
            <Array as="points">
              <mxPoint x="690" y="250" />
              <mxPoint x="604" y="250" />
            </Array>
          </mxGeometry>
        </mxCell>
        <mxCell id="s3_GAaO1s_mws26SSkRH-31" value="SIM" style="edgeStyle=orthogonalEdgeStyle;rounded=0;orthogonalLoop=1;jettySize=auto;html=1;entryX=0.911;entryY=0.556;entryDx=0;entryDy=0;entryPerimeter=0;" edge="1" parent="WIyWlLk6GJQsqaUBKTNV-1" source="s3_GAaO1s_mws26SSkRH-6" target="s3_GAaO1s_mws26SSkRH-7">
          <mxGeometry relative="1" as="geometry" />
        </mxCell>
        <mxCell id="s3_GAaO1s_mws26SSkRH-33" value="NÃO" style="edgeStyle=orthogonalEdgeStyle;rounded=0;orthogonalLoop=1;jettySize=auto;html=1;entryX=0.067;entryY=0.611;entryDx=0;entryDy=0;entryPerimeter=0;" edge="1" parent="WIyWlLk6GJQsqaUBKTNV-1" source="s3_GAaO1s_mws26SSkRH-6" target="s3_GAaO1s_mws26SSkRH-9">
          <mxGeometry relative="1" as="geometry" />
        </mxCell>
        <mxCell id="s3_GAaO1s_mws26SSkRH-37" style="edgeStyle=orthogonalEdgeStyle;rounded=0;orthogonalLoop=1;jettySize=auto;html=1;entryX=0.025;entryY=0.6;entryDx=0;entryDy=0;entryPerimeter=0;" edge="1" parent="WIyWlLk6GJQsqaUBKTNV-1" source="s3_GAaO1s_mws26SSkRH-8" target="s3_GAaO1s_mws26SSkRH-1">
          <mxGeometry relative="1" as="geometry">
            <Array as="points">
              <mxPoint x="-20" y="88" />
            </Array>
          </mxGeometry>
        </mxCell>
        <mxCell id="s3_GAaO1s_mws26SSkRH-38" value="FIM" style="ellipse;whiteSpace=wrap;html=1;" vertex="1" parent="WIyWlLk6GJQsqaUBKTNV-1">
          <mxGeometry x="790" y="515" width="120" height="80" as="geometry" />
        </mxCell>
        <mxCell id="s3_GAaO1s_mws26SSkRH-42" value="" style="shape=ext;double=1;rounded=1;whiteSpace=wrap;html=1;shadow=0;glass=1;fillColor=#E59AF8;" vertex="1" parent="WIyWlLk6GJQsqaUBKTNV-1">
          <mxGeometry x="1241" y="37.25" width="400" height="740" as="geometry" />
        </mxCell>
        <mxCell id="s3_GAaO1s_mws26SSkRH-43" value="" style="shape=ext;double=1;rounded=1;whiteSpace=wrap;html=1;fillColor=#E59AF8;glass=1;" vertex="1" parent="WIyWlLk6GJQsqaUBKTNV-1">
          <mxGeometry x="1930" y="50" width="400" height="740" as="geometry" />
        </mxCell>
        <mxCell id="s3_GAaO1s_mws26SSkRH-44" value="" style="rounded=1;whiteSpace=wrap;html=1;" vertex="1" parent="WIyWlLk6GJQsqaUBKTNV-1">
          <mxGeometry x="1260" y="140" width="290" height="25" as="geometry" />
        </mxCell>
        <mxCell id="s3_GAaO1s_mws26SSkRH-45" value="" style="rounded=1;whiteSpace=wrap;html=1;" vertex="1" parent="WIyWlLk6GJQsqaUBKTNV-1">
          <mxGeometry x="1260" y="210" width="240" height="25" as="geometry" />
        </mxCell>
        <mxCell id="s3_GAaO1s_mws26SSkRH-46" value="" style="rounded=1;whiteSpace=wrap;html=1;" vertex="1" parent="WIyWlLk6GJQsqaUBKTNV-1">
          <mxGeometry x="1260" y="260" width="240" height="25" as="geometry" />
        </mxCell>
        <mxCell id="s3_GAaO1s_mws26SSkRH-47" value="" style="rounded=1;whiteSpace=wrap;html=1;" vertex="1" parent="WIyWlLk6GJQsqaUBKTNV-1">
          <mxGeometry x="1260" y="305" width="240" height="25" as="geometry" />
        </mxCell>
        <mxCell id="s3_GAaO1s_mws26SSkRH-48" value="" style="rounded=1;whiteSpace=wrap;html=1;" vertex="1" parent="WIyWlLk6GJQsqaUBKTNV-1">
          <mxGeometry x="1260" y="345" width="240" height="25" as="geometry" />
        </mxCell>
        <mxCell id="s3_GAaO1s_mws26SSkRH-49" value="" style="rounded=1;whiteSpace=wrap;html=1;" vertex="1" parent="WIyWlLk6GJQsqaUBKTNV-1">
          <mxGeometry x="1260" y="397.5" width="250" height="25" as="geometry" />
        </mxCell>
        <mxCell id="s3_GAaO1s_mws26SSkRH-50" value="DELETAR" style="rounded=1;whiteSpace=wrap;html=1;glass=0;shadow=0;strokeColor=#FF0000;" vertex="1" parent="WIyWlLk6GJQsqaUBKTNV-1">
          <mxGeometry x="1479.8" y="495" width="80" height="25" as="geometry" />
        </mxCell>
        <mxCell id="s3_GAaO1s_mws26SSkRH-92" style="edgeStyle=orthogonalEdgeStyle;rounded=0;orthogonalLoop=1;jettySize=auto;html=1;" edge="1" parent="WIyWlLk6GJQsqaUBKTNV-1" source="s3_GAaO1s_mws26SSkRH-51" target="s3_GAaO1s_mws26SSkRH-88">
          <mxGeometry relative="1" as="geometry">
            <Array as="points">
              <mxPoint x="1385" y="620" />
              <mxPoint x="1385" y="620" />
            </Array>
          </mxGeometry>
        </mxCell>
        <mxCell id="s3_GAaO1s_mws26SSkRH-51" value="CONFIRMAR&amp;nbsp;" style="rounded=1;whiteSpace=wrap;html=1;strokeColor=#3FB513;" vertex="1" parent="WIyWlLk6GJQsqaUBKTNV-1">
          <mxGeometry x="1345" y="500" width="80" height="25" as="geometry" />
        </mxCell>
        <mxCell id="s3_GAaO1s_mws26SSkRH-52" value="" style="rounded=1;whiteSpace=wrap;html=1;" vertex="1" parent="WIyWlLk6GJQsqaUBKTNV-1">
          <mxGeometry x="1520" y="260" width="40" height="25" as="geometry" />
        </mxCell>
        <mxCell id="s3_GAaO1s_mws26SSkRH-53" value="" style="rounded=1;whiteSpace=wrap;html=1;" vertex="1" parent="WIyWlLk6GJQsqaUBKTNV-1">
          <mxGeometry x="1520" y="305" width="40" height="25" as="geometry" />
        </mxCell>
        <mxCell id="s3_GAaO1s_mws26SSkRH-54" value="" style="rounded=1;whiteSpace=wrap;html=1;" vertex="1" parent="WIyWlLk6GJQsqaUBKTNV-1">
          <mxGeometry x="1520" y="345" width="40" height="25" as="geometry" />
        </mxCell>
        <mxCell id="s3_GAaO1s_mws26SSkRH-55" value="" style="rounded=1;whiteSpace=wrap;html=1;" vertex="1" parent="WIyWlLk6GJQsqaUBKTNV-1">
          <mxGeometry x="1520" y="397.5" width="40" height="25" as="geometry" />
        </mxCell>
        <mxCell id="s3_GAaO1s_mws26SSkRH-56" value="" style="rounded=1;whiteSpace=wrap;html=1;" vertex="1" parent="WIyWlLk6GJQsqaUBKTNV-1">
          <mxGeometry x="1520" y="210" width="40" height="25" as="geometry" />
        </mxCell>
        <mxCell id="s3_GAaO1s_mws26SSkRH-57" value="" style="rounded=1;whiteSpace=wrap;html=1;" vertex="1" parent="WIyWlLk6GJQsqaUBKTNV-1">
          <mxGeometry x="1580" y="397.5" width="40" height="25" as="geometry" />
        </mxCell>
        <mxCell id="s3_GAaO1s_mws26SSkRH-58" value="" style="rounded=1;whiteSpace=wrap;html=1;" vertex="1" parent="WIyWlLk6GJQsqaUBKTNV-1">
          <mxGeometry x="1580" y="345" width="40" height="25" as="geometry" />
        </mxCell>
        <mxCell id="s3_GAaO1s_mws26SSkRH-59" value="" style="rounded=1;whiteSpace=wrap;html=1;" vertex="1" parent="WIyWlLk6GJQsqaUBKTNV-1">
          <mxGeometry x="1580" y="305" width="40" height="25" as="geometry" />
        </mxCell>
        <mxCell id="s3_GAaO1s_mws26SSkRH-60" value="" style="rounded=1;whiteSpace=wrap;html=1;" vertex="1" parent="WIyWlLk6GJQsqaUBKTNV-1">
          <mxGeometry x="1580" y="260" width="40" height="25" as="geometry" />
        </mxCell>
        <mxCell id="s3_GAaO1s_mws26SSkRH-61" value="" style="rounded=1;whiteSpace=wrap;html=1;" vertex="1" parent="WIyWlLk6GJQsqaUBKTNV-1">
          <mxGeometry x="1580" y="210" width="40" height="25" as="geometry" />
        </mxCell>
        <mxCell id="s3_GAaO1s_mws26SSkRH-62" value="" style="shape=image;html=1;verticalAlign=top;verticalLabelPosition=bottom;labelBackgroundColor=#ffffff;imageAspect=0;aspect=fixed;image=https://cdn1.iconfinder.com/data/icons/science-technology-outline-24-px/24/Magnifier_magnifying_glass_search_search_web_searching_glass-128.png" vertex="1" parent="WIyWlLk6GJQsqaUBKTNV-1">
          <mxGeometry x="1560" y="140" width="25" height="25" as="geometry" />
        </mxCell>
        <mxCell id="s3_GAaO1s_mws26SSkRH-63" value="" style="sketch=0;outlineConnect=0;fontColor=#232F3E;gradientColor=none;fillColor=#7AA116;strokeColor=none;dashed=0;verticalLabelPosition=bottom;verticalAlign=top;align=center;html=1;fontSize=12;fontStyle=0;aspect=fixed;pointerEvents=1;shape=mxgraph.aws4.iot_over_the_air_update;" vertex="1" parent="WIyWlLk6GJQsqaUBKTNV-1">
          <mxGeometry x="1525.76" y="212" width="28.48" height="23" as="geometry" />
        </mxCell>
        <mxCell id="s3_GAaO1s_mws26SSkRH-64" value="" style="sketch=0;outlineConnect=0;fontColor=#232F3E;gradientColor=none;fillColor=#7AA116;strokeColor=none;dashed=0;verticalLabelPosition=bottom;verticalAlign=top;align=center;html=1;fontSize=12;fontStyle=0;aspect=fixed;pointerEvents=1;shape=mxgraph.aws4.iot_over_the_air_update;" vertex="1" parent="WIyWlLk6GJQsqaUBKTNV-1">
          <mxGeometry x="1525.76" y="306" width="28.48" height="23" as="geometry" />
        </mxCell>
        <mxCell id="s3_GAaO1s_mws26SSkRH-65" value="" style="sketch=0;outlineConnect=0;fontColor=#232F3E;gradientColor=none;fillColor=#7AA116;strokeColor=none;dashed=0;verticalLabelPosition=bottom;verticalAlign=top;align=center;html=1;fontSize=12;fontStyle=0;aspect=fixed;pointerEvents=1;shape=mxgraph.aws4.iot_over_the_air_update;" vertex="1" parent="WIyWlLk6GJQsqaUBKTNV-1">
          <mxGeometry x="1525.76" y="347" width="28.48" height="23" as="geometry" />
        </mxCell>
        <mxCell id="s3_GAaO1s_mws26SSkRH-103" style="edgeStyle=orthogonalEdgeStyle;rounded=0;orthogonalLoop=1;jettySize=auto;html=1;" edge="1" parent="WIyWlLk6GJQsqaUBKTNV-1" source="s3_GAaO1s_mws26SSkRH-66" target="s3_GAaO1s_mws26SSkRH-43">
          <mxGeometry relative="1" as="geometry">
            <Array as="points">
              <mxPoint x="1540" y="430" />
            </Array>
          </mxGeometry>
        </mxCell>
        <mxCell id="s3_GAaO1s_mws26SSkRH-66" value="" style="sketch=0;outlineConnect=0;fontColor=#232F3E;gradientColor=none;fillColor=#7AA116;strokeColor=none;dashed=0;verticalLabelPosition=bottom;verticalAlign=top;align=center;html=1;fontSize=12;fontStyle=0;aspect=fixed;pointerEvents=1;shape=mxgraph.aws4.iot_over_the_air_update;" vertex="1" parent="WIyWlLk6GJQsqaUBKTNV-1">
          <mxGeometry x="1524.2100000000003" y="397.5" width="31.57" height="25.5" as="geometry" />
        </mxCell>
        <mxCell id="s3_GAaO1s_mws26SSkRH-67" value="" style="sketch=0;outlineConnect=0;fontColor=#232F3E;gradientColor=none;fillColor=#7AA116;strokeColor=none;dashed=0;verticalLabelPosition=bottom;verticalAlign=top;align=center;html=1;fontSize=12;fontStyle=0;aspect=fixed;pointerEvents=1;shape=mxgraph.aws4.iot_over_the_air_update;" vertex="1" parent="WIyWlLk6GJQsqaUBKTNV-1">
          <mxGeometry x="1522.66" y="260" width="37.14" height="30" as="geometry" />
        </mxCell>
        <mxCell id="s3_GAaO1s_mws26SSkRH-68" value="" style="html=1;verticalLabelPosition=bottom;align=center;labelBackgroundColor=#ffffff;verticalAlign=top;strokeWidth=2;strokeColor=#0080F0;shadow=0;dashed=0;shape=mxgraph.ios7.icons.trashcan;" vertex="1" parent="WIyWlLk6GJQsqaUBKTNV-1">
          <mxGeometry x="1590" y="212.5" width="20" height="20" as="geometry" />
        </mxCell>
        <mxCell id="s3_GAaO1s_mws26SSkRH-69" value="" style="html=1;verticalLabelPosition=bottom;align=center;labelBackgroundColor=#ffffff;verticalAlign=top;strokeWidth=2;strokeColor=#0080F0;shadow=0;dashed=0;shape=mxgraph.ios7.icons.trashcan;" vertex="1" parent="WIyWlLk6GJQsqaUBKTNV-1">
          <mxGeometry x="1590" y="262.5" width="20" height="20" as="geometry" />
        </mxCell>
        <mxCell id="s3_GAaO1s_mws26SSkRH-70" value="" style="html=1;verticalLabelPosition=bottom;align=center;labelBackgroundColor=#ffffff;verticalAlign=top;strokeWidth=2;strokeColor=#0080F0;shadow=0;dashed=0;shape=mxgraph.ios7.icons.trashcan;" vertex="1" parent="WIyWlLk6GJQsqaUBKTNV-1">
          <mxGeometry x="1590" y="305" width="20" height="20" as="geometry" />
        </mxCell>
        <mxCell id="s3_GAaO1s_mws26SSkRH-71" value="" style="html=1;verticalLabelPosition=bottom;align=center;labelBackgroundColor=#ffffff;verticalAlign=top;strokeWidth=2;strokeColor=#0080F0;shadow=0;dashed=0;shape=mxgraph.ios7.icons.trashcan;" vertex="1" parent="WIyWlLk6GJQsqaUBKTNV-1">
          <mxGeometry x="1590" y="347" width="20" height="20" as="geometry" />
        </mxCell>
        <mxCell id="s3_GAaO1s_mws26SSkRH-72" value="" style="html=1;verticalLabelPosition=bottom;align=center;labelBackgroundColor=#ffffff;verticalAlign=top;strokeWidth=2;strokeColor=#0080F0;shadow=0;dashed=0;shape=mxgraph.ios7.icons.trashcan;" vertex="1" parent="WIyWlLk6GJQsqaUBKTNV-1">
          <mxGeometry x="1590" y="400" width="20" height="20" as="geometry" />
        </mxCell>
        <mxCell id="s3_GAaO1s_mws26SSkRH-74" value="&lt;font style=&quot;font-size: 39px;&quot;&gt;Cliente&amp;nbsp;&lt;/font&gt;" style="text;strokeColor=none;fillColor=none;html=1;fontSize=24;fontStyle=1;verticalAlign=middle;align=center;" vertex="1" parent="WIyWlLk6GJQsqaUBKTNV-1">
          <mxGeometry x="1330" y="60" width="199" height="40" as="geometry" />
        </mxCell>
        <mxCell id="s3_GAaO1s_mws26SSkRH-75" value="&lt;span style=&quot;font-size: 28px;&quot;&gt;Cadastro de cliente&amp;nbsp;&lt;/span&gt;" style="text;strokeColor=none;fillColor=none;html=1;fontSize=24;fontStyle=1;verticalAlign=middle;align=center;" vertex="1" parent="WIyWlLk6GJQsqaUBKTNV-1">
          <mxGeometry x="2020" y="80" width="199" height="40" as="geometry" />
        </mxCell>
        <mxCell id="s3_GAaO1s_mws26SSkRH-76" value="" style="rounded=1;whiteSpace=wrap;html=1;" vertex="1" parent="WIyWlLk6GJQsqaUBKTNV-1">
          <mxGeometry x="1960" y="190" width="220" height="25" as="geometry" />
        </mxCell>
        <mxCell id="s3_GAaO1s_mws26SSkRH-77" value="" style="rounded=1;whiteSpace=wrap;html=1;" vertex="1" parent="WIyWlLk6GJQsqaUBKTNV-1">
          <mxGeometry x="1960" y="407.5" width="240" height="25" as="geometry" />
        </mxCell>
        <mxCell id="s3_GAaO1s_mws26SSkRH-78" value="" style="rounded=1;whiteSpace=wrap;html=1;" vertex="1" parent="WIyWlLk6GJQsqaUBKTNV-1">
          <mxGeometry x="1960" y="335" width="240" height="25" as="geometry" />
        </mxCell>
        <mxCell id="s3_GAaO1s_mws26SSkRH-79" value="" style="rounded=1;whiteSpace=wrap;html=1;" vertex="1" parent="WIyWlLk6GJQsqaUBKTNV-1">
          <mxGeometry x="1960" y="265" width="50" height="25" as="geometry" />
        </mxCell>
        <mxCell id="s3_GAaO1s_mws26SSkRH-80" value="" style="rounded=1;whiteSpace=wrap;html=1;" vertex="1" parent="WIyWlLk6GJQsqaUBKTNV-1">
          <mxGeometry x="2094.5" y="265" width="50" height="25" as="geometry" />
        </mxCell>
        <mxCell id="s3_GAaO1s_mws26SSkRH-81" value="" style="rounded=1;whiteSpace=wrap;html=1;" vertex="1" parent="WIyWlLk6GJQsqaUBKTNV-1">
          <mxGeometry x="2030" y="265" width="50" height="25" as="geometry" />
        </mxCell>
        <mxCell id="s3_GAaO1s_mws26SSkRH-82" value="NOME:" style="text;html=1;align=center;verticalAlign=middle;whiteSpace=wrap;rounded=0;" vertex="1" parent="WIyWlLk6GJQsqaUBKTNV-1">
          <mxGeometry x="1955" y="165" width="60" height="20" as="geometry" />
        </mxCell>
        <mxCell id="s3_GAaO1s_mws26SSkRH-83" value="DATA DE NASCIMENTO" style="text;html=1;align=center;verticalAlign=middle;whiteSpace=wrap;rounded=0;" vertex="1" parent="WIyWlLk6GJQsqaUBKTNV-1">
          <mxGeometry x="1955" y="240" width="160" height="25" as="geometry" />
        </mxCell>
        <mxCell id="s3_GAaO1s_mws26SSkRH-84" value="TELEFONE:" style="text;html=1;align=center;verticalAlign=middle;whiteSpace=wrap;rounded=0;" vertex="1" parent="WIyWlLk6GJQsqaUBKTNV-1">
          <mxGeometry x="1970" y="310" width="60" height="30" as="geometry" />
        </mxCell>
        <mxCell id="s3_GAaO1s_mws26SSkRH-85" value="CPF:" style="text;html=1;align=center;verticalAlign=middle;whiteSpace=wrap;rounded=0;" vertex="1" parent="WIyWlLk6GJQsqaUBKTNV-1">
          <mxGeometry x="1955" y="377.5" width="60" height="30" as="geometry" />
        </mxCell>
        <mxCell id="s3_GAaO1s_mws26SSkRH-86" value="SALVAR" style="rounded=1;whiteSpace=wrap;html=1;strokeColor=#3FB513;" vertex="1" parent="WIyWlLk6GJQsqaUBKTNV-1">
          <mxGeometry x="2010" y="515" width="80" height="25" as="geometry" />
        </mxCell>
        <mxCell id="s3_GAaO1s_mws26SSkRH-87" value="APAGAR" style="rounded=1;whiteSpace=wrap;html=1;glass=0;shadow=0;strokeColor=#FF0000;" vertex="1" parent="WIyWlLk6GJQsqaUBKTNV-1">
          <mxGeometry x="2144.5" y="515" width="80" height="25" as="geometry" />
        </mxCell>
        <mxCell id="s3_GAaO1s_mws26SSkRH-88" value="" style="rounded=0;whiteSpace=wrap;html=1;" vertex="1" parent="WIyWlLk6GJQsqaUBKTNV-1">
          <mxGeometry x="1317.5" y="650" width="120" height="90" as="geometry" />
        </mxCell>
        <mxCell id="s3_GAaO1s_mws26SSkRH-89" value="DEJESA APAGAR ISSO ?" style="text;html=1;align=center;verticalAlign=middle;whiteSpace=wrap;rounded=0;" vertex="1" parent="WIyWlLk6GJQsqaUBKTNV-1">
          <mxGeometry x="1325" y="660" width="100" height="30" as="geometry" />
        </mxCell>
        <mxCell id="s3_GAaO1s_mws26SSkRH-90" value="SIM" style="rounded=1;whiteSpace=wrap;html=1;strokeColor=#3FB513;" vertex="1" parent="WIyWlLk6GJQsqaUBKTNV-1">
          <mxGeometry x="1325" y="707.5" width="50" height="15" as="geometry" />
        </mxCell>
        <mxCell id="s3_GAaO1s_mws26SSkRH-91" value="NÃO" style="rounded=1;whiteSpace=wrap;html=1;glass=0;shadow=0;strokeColor=#FF0000;" vertex="1" parent="WIyWlLk6GJQsqaUBKTNV-1">
          <mxGeometry x="1382.5" y="705" width="45" height="20" as="geometry" />
        </mxCell>
        <mxCell id="s3_GAaO1s_mws26SSkRH-95" value="" style="rounded=0;whiteSpace=wrap;html=1;" vertex="1" parent="WIyWlLk6GJQsqaUBKTNV-1">
          <mxGeometry x="1478.44" y="650" width="120" height="90" as="geometry" />
        </mxCell>
        <mxCell id="s3_GAaO1s_mws26SSkRH-96" value="DEJESA APAGAR ISSO ?" style="text;html=1;align=center;verticalAlign=middle;whiteSpace=wrap;rounded=0;" vertex="1" parent="WIyWlLk6GJQsqaUBKTNV-1">
          <mxGeometry x="1488.44" y="660" width="100" height="30" as="geometry" />
        </mxCell>
        <mxCell id="s3_GAaO1s_mws26SSkRH-98" value="SIM" style="rounded=1;whiteSpace=wrap;html=1;strokeColor=#3FB513;" vertex="1" parent="WIyWlLk6GJQsqaUBKTNV-1">
          <mxGeometry x="1479.8" y="710" width="50" height="15" as="geometry" />
        </mxCell>
        <mxCell id="s3_GAaO1s_mws26SSkRH-99" value="NÃO" style="rounded=1;whiteSpace=wrap;html=1;glass=0;shadow=0;strokeColor=#FF0000;" vertex="1" parent="WIyWlLk6GJQsqaUBKTNV-1">
          <mxGeometry x="1540" y="710" width="45" height="20" as="geometry" />
        </mxCell>
        <mxCell id="s3_GAaO1s_mws26SSkRH-100" value="&lt;font style=&quot;font-size: 25px;&quot;&gt;+&lt;/font&gt;" style="rounded=1;whiteSpace=wrap;html=1;" vertex="1" parent="WIyWlLk6GJQsqaUBKTNV-1">
          <mxGeometry x="1560" y="445" width="40" height="25" as="geometry" />
        </mxCell>
        <mxCell id="s3_GAaO1s_mws26SSkRH-102" style="edgeStyle=orthogonalEdgeStyle;rounded=0;orthogonalLoop=1;jettySize=auto;html=1;entryX=0;entryY=0.551;entryDx=0;entryDy=0;entryPerimeter=0;" edge="1" parent="WIyWlLk6GJQsqaUBKTNV-1" source="s3_GAaO1s_mws26SSkRH-100" target="s3_GAaO1s_mws26SSkRH-43">
          <mxGeometry relative="1" as="geometry" />
        </mxCell>
      </root>
    </mxGraphModel>
  </diagram>
</mxfile>
